HIERARCHY
ROOT Hips
{
	OFFSET 0.000000 0.000000 0.000000
	CHANNELS 6 Xposition Yposition Zposition Xrotation Yrotation Zrotation
	JOINT Spine
	{
		OFFSET 0.000000 0.049001 0.073502
		CHANNELS 3 Xrotation Yrotation Zrotation
		JOINT Spine1
		{
			OFFSET 0.000000 0.017018 0.096514
			CHANNELS 3 Xrotation Yrotation Zrotation
			JOINT Spine2
			{
				OFFSET 0.000000 0.008542 0.097630
				CHANNELS 3 Xrotation Yrotation Zrotation
				JOINT Spine3
				{
					OFFSET 0.000000 0.000000 0.098003
					CHANNELS 3 Xrotation Yrotation Zrotation
					JOINT Neck
					{
						OFFSET 0.000000 -0.036751 0.257258
						CHANNELS 3 Xrotation Yrotation Zrotation
						JOINT Head
						{
							OFFSET 0.000000 -0.023400 0.132707
							CHANNELS 3 Xrotation Yrotation Zrotation
							End Site
							{
								OFFSET 0.000000 0.000000 0.000000
							}
						}
					}
					JOINT RightShoulder
					{
						OFFSET -0.030410 -0.050683 0.164214
						CHANNELS 3 Xrotation Yrotation Zrotation
						JOINT RightArm
						{
							OFFSET -0.151036 0.000000 0.000000
							CHANNELS 3 Xrotation Yrotation Zrotation
							JOINT RightForeArm
							{
								OFFSET -0.279942 0.000000 0.000000
								CHANNELS 3 Xrotation Yrotation Zrotation
								JOINT RightHand
								{
									OFFSET -0.265034 0.000000 0.000000
									CHANNELS 3 Xrotation Yrotation Zrotation
									JOINT RightHandEnd
									{
										OFFSET -0.071866 0.000000 0.000000
										CHANNELS 3 Xrotation Yrotation Zrotation
										End Site
										{
											OFFSET 0.000000 0.000000 0.000000
										}
									}
									JOINT RightHandThumb1
									{
										OFFSET -0.028746 -0.047911 -0.019164
										CHANNELS 3 Xrotation Yrotation Zrotation
										End Site
										{
											OFFSET 0.000000 0.000000 0.000000
										}
									}
								}
							}
						}
					}
					JOINT LeftShoulder
					{
						OFFSET 0.030410 -0.050683 0.164214
						CHANNELS 3 Xrotation Yrotation Zrotation
						JOINT LeftArm
						{
							OFFSET 0.151036 0.000000 0.000000
							CHANNELS 3 Xrotation Yrotation Zrotation
							JOINT LeftForeArm
							{
								OFFSET 0.279942 0.000000 0.000000
								CHANNELS 3 Xrotation Yrotation Zrotation
								JOINT LeftHand
								{
									OFFSET 0.265034 0.000000 0.000000
									CHANNELS 3 Xrotation Yrotation Zrotation
									JOINT LeftHandEnd
									{
										OFFSET 0.071866 0.000000 0.000000
										CHANNELS 3 Xrotation Yrotation Zrotation
										End Site
										{
											OFFSET 0.000000 0.000000 0.000000
										}
									}
									JOINT LeftHandThumb1
									{
										OFFSET 0.028746 -0.047911 -0.019164
										CHANNELS 3 Xrotation Yrotation Zrotation
										End Site
										{
											OFFSET 0.000000 0.000000 0.000000
										}
									}
								}
							}
						}
					}
				}
			}
		}
	}
	JOINT RightUpLeg
	{
		OFFSET -0.090216 0.000000 -0.026355
		CHANNELS 3 Xrotation Yrotation Zrotation
		JOINT RightLeg
		{
			OFFSET 0.000000 0.000000 -0.402871
			CHANNELS 3 Xrotation Yrotation Zrotation
			JOINT RightFoot
			{
				OFFSET 0.000000 0.000000 -0.414145
				CHANNELS 3 Xrotation Yrotation Zrotation
				JOINT RightToeBase
				{
					OFFSET 0.000000 -0.146359 -0.053270
					CHANNELS 3 Xrotation Yrotation Zrotation
					End Site
					{
						OFFSET 0.000000 0.000000 0.000000
					}
				}
			}
		}
	}
	JOINT LeftUpLeg
	{
		OFFSET 0.090216 0.000000 -0.026355
		CHANNELS 3 Xrotation Yrotation Zrotation
		JOINT LeftLeg
		{
			OFFSET 0.000000 0.000000 -0.402871
			CHANNELS 3 Xrotation Yrotation Zrotation
			JOINT LeftFoot
			{
				OFFSET 0.000000 0.000000 -0.414145
				CHANNELS 3 Xrotation Yrotation Zrotation
				JOINT LeftToeBase
				{
					OFFSET 0.000000 -0.146359 -0.053270
					CHANNELS 3 Xrotation Yrotation Zrotation
					End Site
					{
						OFFSET 0.000000 0.000000 0.000000
					}
				}
			}
		}
	}
}
MOTION
Frames: 14
Frame Time: 0.033333
-0.044219 -0.500108 0.898888 1.437600 0.529000 -24.910500 3.556700 -1.634600 0.449900 0.549900 0.161700 -0.056100 7.181600 0.424100 -2.011300 3.641000 0.892700 -1.093600 11.036900 2.711500 -3.604200 6.294300 3.686200 -3.297600 6.339800 -4.648700 10.104300 -34.609400 -36.916700 -5.603000 0.000000 0.000000 31.644000 -46.731100 1.694800 6.606600 0.000000 0.000000 0.000000 0.000000 0.000000 0.000000 6.415600 2.010800 -11.092600 -1.165100 23.595900 -26.928600 -0.000100 -0.000100 -83.509200 -22.084300 -9.978000 8.839700 0.000000 0.000000 0.000000 0.000000 0.000000 0.000000 -14.396200 -2.633800 -4.389900 29.479600 0.000000 0.000000 -10.424300 4.427600 -11.941900 -5.953300 0.000000 0.000000 -35.694500 2.090200 4.509500 37.718000 0.000000 0.000000 12.687500 9.810900 0.497900 -18.134800 0.000000 0.000000 
-0.049591 -0.480324 0.898939 1.836900 1.112900 -23.970200 3.758200 -1.508500 0.414400 0.628300 0.245200 -0.052800 7.024800 0.150200 -1.947300 3.621000 0.746000 -0.876900 10.763100 2.292600 -2.995300 6.032900 3.765900 -1.993000 6.384900 -5.078400 10.407300 -35.764200 -38.532300 -6.093100 0.000000 0.000000 35.460600 -46.728500 0.949000 6.601100 0.000000 0.000000 0.000000 0.000000 0.000000 0.000000 5.154400 1.945400 -12.606800 -4.826200 21.942300 -27.156200 0.000000 -0.000100 -77.447500 -23.104100 -8.355900 7.535800 0.000000 0.000000 0.000000 0.000000 0.000000 0.000000 -14.655700 -3.686400 -7.387100 27.756700 0.000000 0.000000 -9.455100 5.519100 -10.857800 -5.001500 0.000000 0.000000 -37.475700 0.563700 4.743900 46.549000 0.000000 0.000000 5.903700 6.023900 9.376400 -22.060300 0.000000 0.000000 
-0.054968 -0.463245 0.898787 1.994700 1.794200 -22.777000 3.874100 -1.416000 0.378400 0.739400 0.387400 -0.070100 6.794600 -0.136100 -2.449200 3.597400 0.664100 -0.854500 10.623800 1.807200 -2.267400 5.913200 4.037900 -0.229700 6.365500 -5.200200 10.435300 -36.209300 -41.515500 -6.127500 0.000000 0.000000 39.259400 -46.705800 0.754700 6.971800 0.000000 0.000000 0.000000 0.000000 0.000000 0.000000 4.142100 1.553100 -14.010900 -7.655100 20.604000 -27.889900 0.000000 -0.000100 -70.529300 -24.049600 -6.807400 5.974700 0.000000 0.000000 0.000000 0.000000 0.000000 0.000000 -14.850400 -4.632700 -11.000100 26.587200 0.000000 0.000000 -8.573200 6.522700 -9.879600 -4.386200 0.000000 0.000000 -37.133200 -0.377000 4.408400 55.049800 0.000000 0.000000 2.397900 0.988600 16.199900 -22.966000 0.000000 0.000000 
-0.058560 -0.447291 0.898815 2.137800 1.942000 -21.188400 3.803400 -1.007300 0.171500 0.765400 0.567900 -0.098500 6.558000 -0.400800 -3.230200 3.529600 0.637400 -0.952500 10.331300 1.373800 -1.549000 5.731300 4.373000 1.717700 6.343400 -5.245700 10.416200 -35.868500 -45.125100 -5.841900 0.000000 0.000000 43.335400 -46.275300 1.547200 7.563400 0.000000 0.000000 0.000000 0.000000 0.000000 0.000000 3.311000 1.198600 -15.597200 -9.864300 19.265400 -28.817900 0.000000 -0.000100 -63.124000 -23.900900 -5.844800 4.195300 0.000000 0.000000 0.000000 0.000000 0.000000 0.000000 -15.281200 -4.945600 -14.662400 25.435800 0.000000 0.000000 -7.634200 7.484700 -9.295700 -4.145200 0.000000 0.000000 -35.245000 -0.402900 4.265000 61.046600 0.000000 0.000000 0.611700 -0.184000 19.791000 -22.832800 0.000000 0.000000 
-0.060330 -0.431310 0.899030 2.594800 1.597100 -19.479600 3.446300 -0.453200 -0.104200 0.651700 0.749800 -0.124600 6.360300 -0.611900 -3.961200 3.434900 0.609600 -1.055300 9.721600 1.140400 -0.826200 5.360000 4.723000 3.602800 6.253100 -5.582800 10.549300 -35.540600 -48.526100 -5.951600 0.000000 0.000000 47.389900 -46.055100 3.059600 7.693800 0.000000 0.000000 0.000000 0.000000 0.000000 0.000000 2.505800 1.133300 -17.411600 -11.458600 17.881800 -29.837200 0.000000 0.000000 -55.639000 -23.032900 -5.510900 2.557000 0.000000 0.000000 0.000000 0.000000 0.000000 0.000000 -16.180400 -4.785600 -17.450400 24.235400 0.000000 0.000000 -6.719900 8.063400 -8.997100 -3.895400 0.000000 0.000000 -32.504700 -0.131600 4.965200 63.727400 0.000000 0.000000 -1.717100 0.742000 20.354900 -23.459800 0.000000 0.000000 
-0.060955 -0.415267 0.899836 3.302100 1.124900 -17.452200 2.937000 0.002100 -0.338100 0.447400 0.906000 -0.147300 6.285100 -0.858600 -4.715500 3.338900 0.562700 -1.161000 8.836400 1.146500 -0.147800 4.674700 5.136100 5.345100 6.119200 -6.138300 10.688300 -36.592500 -51.754800 -7.403800 0.000000 0.000100 50.444200 -47.392000 4.859000 7.461100 0.000000 0.000000 0.000000 0.000000 0.000000 0.000000 1.662200 1.251700 -19.357100 -12.420700 16.675400 -30.911600 0.000000 0.000000 -48.464600 -22.766100 -5.285400 1.277100 0.000000 0.000000 0.000000 0.000000 0.000000 0.000000 -17.288700 -4.387000 -19.861900 22.917400 0.000000 0.000000 -5.853700 8.266700 -8.509400 -3.729500 0.000000 0.000000 -28.764500 0.143800 6.350400 62.128200 0.000000 0.000000 -3.779300 1.259800 19.497800 -25.084200 0.000000 0.000000 
-0.060068 -0.399311 0.901393 4.026400 0.420100 -14.980400 2.372800 0.668400 -0.625200 0.161400 0.989800 -0.184300 6.467300 -1.242100 -5.556500 3.268300 0.511900 -1.272400 7.830400 1.354200 0.455100 3.657200 5.646500 6.979500 6.146900 -6.617400 10.782500 -39.379000 -54.868800 -9.823700 0.000000 0.000100 51.653900 -51.030000 6.585800 7.577100 0.000000 0.000000 0.000000 0.000000 0.000000 0.000000 0.885000 1.414800 -21.231800 -12.898900 15.609100 -31.902100 0.000000 0.000000 -41.924000 -23.787300 -4.832500 0.258600 0.000000 0.000000 0.000000 0.000000 0.000000 0.000000 -18.493900 -3.506700 -22.419200 21.589600 0.000000 0.000000 -4.792500 8.299000 -7.919700 -3.807100 0.000000 0.000000 -24.107000 0.606500 8.830200 55.765600 0.000000 0.000000 -4.896900 0.499500 18.514300 -26.715200 0.000000 0.000000 
-0.056746 -0.383957 0.903536 4.305900 -1.014600 -12.761700 2.001600 2.134000 -0.990400 -0.134900 1.057600 -0.214300 6.895500 -1.725900 -6.214800 3.248800 0.459400 -1.343400 6.822800 1.702800 1.148600 2.601800 6.244600 8.543700 6.443200 -7.018900 11.089100 -42.023300 -57.299200 -11.034300 0.000000 0.000100 51.537900 -55.404800 8.061500 7.979600 0.000000 0.000000 0.000000 0.000000 0.000000 0.000000 0.228100 1.674600 -22.725500 -12.954200 14.436900 -32.497900 0.000000 0.000000 -36.332500 -25.812100 -4.260900 -0.577700 0.000000 0.000000 0.000000 0.000000 0.000000 0.000000 -19.713700 -1.602200 -24.075900 20.888100 0.000000 0.000000 -3.627200 8.090900 -7.835700 -3.538100 0.000000 0.000000 -18.552200 1.591600 14.048600 45.547600 0.000000 0.000000 -6.163000 -1.807900 16.195100 -25.835300 0.000000 0.000000 
-0.050795 -0.369654 0.906168 3.700600 -3.310200 -11.452100 2.250900 4.284200 -1.187300 -0.205400 1.299800 -0.213700 7.270900 -2.095000 -6.576000 3.239300 0.400600 -1.370600 5.825100 2.107300 2.081200 1.884600 6.876600 10.035700 6.688800 -7.405700 11.644000 -41.880800 -58.736800 -9.273700 0.000000 0.000100 51.854100 -57.499100 9.557900 7.988200 0.000000 0.000000 0.000000 0.000000 0.000000 0.000000 -0.287400 2.011200 -23.596800 -12.713400 13.319900 -32.406400 0.000000 0.000000 -32.104200 -28.239800 -3.673700 -1.158700 0.000000 0.000000 0.000000 0.000000 0.000000 0.000000 -20.877500 1.427500 -23.357400 21.611600 0.000000 0.000000 -2.850800 7.421800 -8.538800 -3.562500 0.000000 0.000000 -12.164100 3.827900 22.048100 33.691400 0.000000 0.000000 -7.986500 -4.315400 10.008200 -21.413900 0.000000 0.000000 
-0.043180 -0.354139 0.908624 3.018500 -5.823000 -10.392700 2.835700 6.066300 -1.250900 0.003000 1.760500 -0.207000 7.266500 -2.162300 -6.900300 3.139900 0.387000 -1.473100 4.770800 2.412500 3.063400 1.447600 7.443000 11.453800 6.465000 -7.533800 12.121000 -38.930700 -59.465300 -5.611300 0.000000 0.000100 53.606800 -56.088600 11.154700 7.387700 0.000000 0.000000 0.000000 0.000000 0.000000 0.000000 -0.566600 2.161400 -23.932300 -12.780300 12.801300 -31.515500 0.000000 0.000000 -29.646200 -30.545600 -3.025500 -1.498200 0.000000 0.000000 0.000000 0.000000 0.000000 0.000000 -23.075700 4.732200 -20.000200 24.185400 0.000000 0.000000 -2.303600 5.893700 -10.167100 -7.095100 0.000000 0.000000 -7.335800 7.440500 27.375900 23.592200 0.000000 0.000000 -8.660100 -5.274400 2.677200 -16.580100 0.000000 0.000000 
-0.036147 -0.336131 0.910092 3.000800 -7.742200 -8.838800 3.305600 6.898300 -1.394000 0.303500 2.088800 -0.203700 7.076400 -1.952100 -7.248000 2.948000 0.478600 -1.656800 3.648400 2.556000 3.812200 0.871300 7.839200 12.751500 5.925100 -7.057000 12.378200 -35.144200 -59.859600 -1.864500 0.000000 0.000100 55.913900 -53.235000 12.209800 6.535500 0.000000 0.000000 0.000000 0.000000 0.000000 0.000000 -0.521900 2.158000 -24.019000 -13.770600 12.877600 -29.904200 0.000000 0.000000 -29.039000 -32.264900 -2.369500 -1.784500 0.000000 0.000000 0.000000 0.000000 0.000000 0.000000 -26.783900 7.201700 -14.708900 28.620300 0.000000 0.000000 -1.527300 2.999400 -12.691000 -15.870800 0.000000 0.000000 -5.490400 10.891300 25.276700 17.155800 0.000000 0.000000 -7.269600 -6.006700 -0.100700 -14.456800 0.000000 0.000000 
-0.031529 -0.318872 0.909909 2.972000 -8.813200 -7.714100 3.742700 7.000600 -1.497600 0.552900 2.075500 -0.210700 7.075500 -1.476000 -7.016900 2.795600 0.650000 -1.827700 2.631500 2.718800 4.511100 0.053300 8.084600 13.834600 5.748600 -5.987700 12.746000 -31.241100 -59.814600 2.239400 0.000000 0.000100 57.418500 -52.185200 12.114800 5.997100 0.000000 0.000000 0.000000 0.000000 0.000000 0.000000 -0.213900 2.417200 -23.729900 -15.587300 13.204000 -27.787900 0.000000 0.000000 -30.038600 -33.221900 -1.799600 -2.093400 0.000000 0.000000 0.000000 0.000000 0.000000 0.000000 -30.807500 8.299100 -8.509100 35.080000 0.000000 0.000000 -1.282500 -0.635000 -15.458100 -25.723500 0.000000 0.000000 -4.736300 13.149900 20.971300 13.239200 0.000000 0.000000 -5.246000 -7.319400 0.131300 -14.598500 0.000000 0.000000 
-0.029106 -0.305209 0.908342 2.483600 -9.787200 -7.861700 4.111100 7.150900 -1.532500 0.671400 2.006700 -0.177000 7.255200 -0.801100 -5.955300 2.751200 0.769100 -1.826600 1.928100 3.158100 5.510300 -0.668400 8.305900 14.683700 6.060100 -4.981500 13.411800 -26.668300 -58.819500 7.487400 0.000000 0.000100 57.935000 -53.239000 11.050400 5.759100 0.000000 0.000000 0.000000 0.000000 0.000000 0.000000 0.286300 3.191300 -22.677400 -17.696000 13.902300 -25.415400 0.000000 0.000000 -32.474400 -33.748000 -1.314500 -2.295700 0.000000 0.000000 0.000000 0.000000 0.000000 0.000000 -34.252400 8.576300 -2.467000 43.419200 0.000000 0.000000 -2.561600 -3.004900 -18.013400 -30.735200 0.000000 0.000000 -3.902600 14.819500 20.461200 10.365200 0.000000 0.000000 -4.071300 -8.770900 -0.707200 -14.775400 0.000000 0.000000 
-0.028710 -0.295128 0.906945 1.862500 -11.001100 -8.355700 4.311800 7.596500 -1.580300 0.701100 2.023500 -0.106900 7.371300 -0.066100 -4.672400 2.733200 0.766600 -1.698200 1.633300 3.920800 6.716700 -1.090900 8.594900 15.393200 6.219100 -4.610800 14.149600 -21.738700 -57.035200 12.663700 0.000000 0.000100 58.177200 -54.078100 9.701200 5.469200 0.000000 0.000000 0.000000 0.000000 0.000000 0.000000 1.068900 4.177500 -20.869200 -19.769600 15.524300 -22.794400 0.000000 0.000000 -36.437700 -34.234000 -0.963200 -2.270700 0.000000 0.000000 0.000000 0.000000 0.000000 0.000000 -36.378000 8.804700 2.337900 52.002800 0.000000 0.000000 -4.607700 -3.015600 -20.497000 -30.982300 0.000000 0.000000 -3.374100 16.216100 22.410100 8.720800 0.000000 0.000000 -3.659700 -9.698700 -2.964800 -14.469000 0.000000 0.000000 
